<svg xmlns="http://www.w3.org/2000/svg" width="32.001" height="40" viewBox="0 0 32.001 40">
  <g id="Group_6690" data-name="Group 6690" transform="translate(-99.579 -225)">
    <path id="Path_1955" data-name="Path 1955" d="M180.054,51.157c-6.086,0-9.043-2.181-9.043-6.667a.719.719,0,0,0-.7-.741h-11.13a.72.72,0,0,0-.7.741c0,4.486-2.958,6.667-9.043,6.667a.72.72,0,0,0-.7.741V65.231c0,7.681,14.987,17.968,15.626,18.4a.662.662,0,0,0,.75,0c.638-.434,15.626-10.721,15.626-18.4V51.9a.719.719,0,0,0-.7-.741Zm-.7,14.074c0,6.257-12.288,15.25-14.609,16.892-2.321-1.642-14.609-10.634-14.609-16.892v-12.6c6.151-.172,9.415-2.657,9.716-7.4h9.785c.3,4.741,3.565,7.226,9.716,7.4Z" transform="translate(-49.171 181.25)" fill="#6c6e73"/>
    <path id="Path_1956" data-name="Path 1956" d="M297.793,189.315h-.7v-2.087a3.478,3.478,0,1,0-6.957,0v2.087h-.7a.7.7,0,0,0-.7.7v6.957a.7.7,0,0,0,.7.7h8.348a.7.7,0,0,0,.7-.7v-6.957A.7.7,0,0,0,297.793,189.315Zm-6.261-2.087a2.087,2.087,0,1,1,4.174,0v2.087h-4.174Zm5.565,9.043h-6.957v-5.565H297.1Z" transform="translate(-178.04 53.526)" fill="#6c6e73"/>
  </g>
</svg>
