<svg xmlns="http://www.w3.org/2000/svg" width="20" height="22" viewBox="0 0 24 27.429" fill="#828282">
  <path id="calculator" d="M21.429,0H2.571A2.636,2.636,0,0,0,0,2.571V24.857a2.636,2.636,0,0,0,2.571,2.571H21.429A2.636,2.636,0,0,0,24,24.857V2.571A2.636,2.636,0,0,0,21.429,0ZM7.832,23.854a.737.737,0,0,1-.686.686H4.09a.737.737,0,0,1-.686-.686V20.913a.737.737,0,0,1,.686-.686H7.147a.737.737,0,0,1,.686.686Zm0-6.857a.737.737,0,0,1-.686.686H4.09A.737.737,0,0,1,3.4,17V13.94a.737.737,0,0,1,.686-.686H7.147a.737.737,0,0,1,.686.686ZM14.3,23.854a.737.737,0,0,1-.686.686H10.553a.737.737,0,0,1-.686-.686V20.913a.737.737,0,0,1,.686-.686h3.057a.737.737,0,0,1,.686.686ZM14.3,17a.737.737,0,0,1-.686.686H10.553A.737.737,0,0,1,9.868,17V13.94a.737.737,0,0,1,.686-.686h3.057a.737.737,0,0,1,.686.686Zm6.25,6.857a.737.737,0,0,1-.686.686h-2.7a.737.737,0,0,1-.686-.686V13.94a.737.737,0,0,1,.686-.686h2.7a.737.737,0,0,1,.686.686v9.914Zm0-13.626a.737.737,0,0,1-.686.686H4.09a.737.737,0,0,1-.686-.686V3.115a.737.737,0,0,1,.686-.686H19.861a.737.737,0,0,1,.686.686Z" />
</svg>
