<svg xmlns="http://www.w3.org/2000/svg" width="20" height="18" viewBox="0 0 20 18">
  <path id="users" d="M25.25,9.964a2.572,2.572,0,1,0-2.5-2.571A2.539,2.539,0,0,0,25.25,9.964ZM26.5,11.25H24A2.458,2.458,0,0,0,22.238,12a5.879,5.879,0,0,1,2.934,4.4H27.75A1.267,1.267,0,0,0,29,15.107V13.821A2.539,2.539,0,0,0,26.5,11.25Zm-10,0a4.437,4.437,0,0,0,4.375-4.5,4.377,4.377,0,1,0-8.75,0A4.437,4.437,0,0,0,16.5,11.25Zm3,1.286h-.324a5.89,5.89,0,0,1-5.352,0H13.5A4.567,4.567,0,0,0,9,17.164v1.157a1.9,1.9,0,0,0,1.875,1.929h11.25A1.9,1.9,0,0,0,24,18.321V17.164A4.567,4.567,0,0,0,19.5,12.536Z" transform="translate(-9 -2.25)" fill="#828282"/>
</svg>
