<svg xmlns="http://www.w3.org/2000/svg" width="20" height="22" viewBox="0 0 24 26.543" fill="#828282">
  <path id="database" d="M24,2.534V3.743c0,1.947-5.375,3.534-12,3.534S0,5.69,0,3.743V2.534C0,.588,5.375-1,12-1S24,.588,24,2.534Zm0,5.872v4.97c0,1.947-5.375,3.534-12,3.534S0,15.322,0,13.376V8.406c2.578,1.6,7.3,2.347,12,2.347S21.422,10.007,24,8.406Zm0,9.633v3.97c0,1.947-5.375,3.534-12,3.534S0,23.955,0,22.009v-3.97c2.578,1.6,7.3,2.347,12,2.347S21.422,19.64,24,18.039Z" transform="translate(0 1)" />
</svg>
