<svg id="edit" xmlns="http://www.w3.org/2000/svg" width="18" height="18" viewBox="0 0 18 18">
  <path id="Path_465" data-name="Path 465" d="M34.209,24.194c-.242,0-.475.4-.475.4v4.434a2.4,2.4,0,0,1-2.628,2.5H20.295a2.408,2.408,0,0,1-2.549-2.59v-10.4A2.536,2.536,0,0,1,20.295,15.8h4.434c.21,0,.472-.327.472-.627a.581.581,0,0,0-.472-.571H20.295A3.6,3.6,0,0,0,16.7,18.195V29.005A3.6,3.6,0,0,0,20.295,32.6h10.81A3.6,3.6,0,0,0,34.7,29.005V24.6A.484.484,0,0,0,34.209,24.194Z" transform="translate(-16.7 -14.6)" fill="#FF9E54"/>
  <path id="Path_466" 
  data-name="Path 466" 
  d="M43.933,24.81l-1.167,4.221a.491.491,0,0,0,.343.618.376.376,0,0,0,.275,0l4.187-1.167a.86.86,0,0,0,.24-.137l8.614-8.58A2.677,2.677,0,0,0,54.5,15.2H54.47a2.489,2.489,0,0,0-1.853.789l-8.58,8.58A1.673,1.673,0,0,0,43.933,24.81Zm9.438-8.134a1.669,1.669,0,0,1,2.334.172,1.625,1.625,0,0,1,0,2.162l-8.237,8.237-2.334-2.334ZM46.542,27.8l-2.643.686.755-2.574Z" transform="translate(-39.315 -15.044)" fill="#FF9E54"/>
</svg>
