<svg xmlns="http://www.w3.org/2000/svg" width="32" height="24" viewBox="0 0 32 24">
  <path id="email" d="M7224.7,14552.3h-26.788c-1.437,0-2.606-1.493-2.606-3.328v-17.345c0-1.834,1.169-3.327,2.606-3.327H7224.7c1.437,0,2.606,1.493,2.606,3.327v17.345C7227.3,14550.806,7226.133,14552.3,7224.7,14552.3Zm-17.437-10.6-9.779,9.148h27.639l-9.778-9.148-2.552,2.629a1.991,1.991,0,0,1-2.979,0l-2.551-2.629Zm18.613-10.815-9.625,9.893,9.778,9.139.068-.209a2.357,2.357,0,0,0,.113-.737v-17.345a2.217,2.217,0,0,0-.079-.6l-.024-.08-.133.038-.1-.1Zm-29.654-.118h0l.253.262a2.364,2.364,0,0,0-.079.6v17.345a2.368,2.368,0,0,0,.116.737l.068.209,9.775-9.139-9.563-9.829.109-.359-.308.247Zm1.69-1.02a.4.4,0,0,0-.108.016l-.009,0h-.006l-.007,0-.027.007-.284.035,13,13.382a1.287,1.287,0,0,0,1.659,0l13.007-13.382-.288-.035a.122.122,0,0,1-.022,0l-.015,0h-.006a.46.46,0,0,0-.111-.017Z" transform="translate(-7195.302 -14528.299)" fill="#6c6e73"/>
</svg>
