<svg xmlns="http://www.w3.org/2000/svg" width="15.997" height="15.997" viewBox="0 0 15.997 15.997">
  <g id="Group_4838" data-name="Group 4838" transform="translate(-2267 746)">
    <path id="Path_1264" data-name="Path 1264" d="M416.08,341.855a.4.4,0,0,0-.4.4v2.85l-4.8-4.8a.4.4,0,0,0-.566.566l4.8,4.8h-2.85a.4.4,0,1,0,0,.8h3.816a.4.4,0,0,0,.078-.008c.012,0,.024-.007.035-.01a.367.367,0,0,0,.039-.012.438.438,0,0,0,.04-.021c.01-.005.02-.009.029-.016a.4.4,0,0,0,.111-.111c.006-.009.01-.019.015-.028a.42.42,0,0,0,.021-.04.389.389,0,0,0,.012-.039c0-.012.008-.023.011-.035a.417.417,0,0,0,.008-.079v-3.816a.4.4,0,0,0-.4-.4Z" transform="translate(1866.517 -1076.474)" fill="#54A9FF"/>
    <path id="Path_1265" data-name="Path 1265" d="M71.365.8h2.85a.4.4,0,0,0,0-.8H70.4a.4.4,0,0,0-.078.008c-.012,0-.023.007-.035.01a.362.362,0,0,0-.04.012c-.013.006-.026.013-.039.02s-.02.01-.03.016a.4.4,0,0,0-.111.111c-.006.009-.01.02-.016.029a.36.36,0,0,0-.021.04c-.005.013-.008.027-.012.04s-.008.023-.01.035A.4.4,0,0,0,70,.4V4.215a.4.4,0,0,0,.8,0V1.365l4.8,4.8a.4.4,0,0,0,.566-.566Z" transform="translate(2197 -746)" fill="#54A9FF"/>
    <path id="Path_1266" data-name="Path 1266" d="M416.466.322c0-.012-.007-.023-.01-.035a.387.387,0,0,0-.012-.04.407.407,0,0,0-.021-.04c-.005-.01-.01-.02-.016-.029A.4.4,0,0,0,416.3.068c-.009-.006-.019-.01-.028-.015a.4.4,0,0,0-.04-.021c-.013-.005-.026-.008-.039-.012s-.023-.008-.035-.011A.4.4,0,0,0,416.074,0h-3.816a.4.4,0,1,0,0,.8h2.85l-4.8,4.8a.4.4,0,0,0,.566.566l4.8-4.8v2.85a.4.4,0,0,0,.8,0V.4a.4.4,0,0,0-.008-.078Z" transform="translate(1866.523 -746)" fill="#54A9FF"/>
    <path id="Path_1267" data-name="Path 1267" d="M75.6,340.315l-4.8,4.8v-2.85a.4.4,0,1,0-.8,0v3.816a.4.4,0,0,0,.008.078c0,.012.007.023.01.035a.354.354,0,0,0,.012.039.375.375,0,0,0,.021.04c.005.01.009.02.016.029a.4.4,0,0,0,.111.111c.01.006.02.011.03.016a.433.433,0,0,0,.039.021.381.381,0,0,0,.04.012c.011,0,.023.008.035.01a.392.392,0,0,0,.078.008h3.816a.4.4,0,0,0,0-.8h-2.85l4.8-4.8a.4.4,0,0,0-.566-.566Z" transform="translate(2197 -1076.48)" fill="#54A9FF"/>
  </g>
</svg>
