<svg xmlns="http://www.w3.org/2000/svg" width="35" height="25" viewBox="0 0 46.995 34.617">
  <path id="makor" d="M49.814,26.739l4.425,7.878h.4L70.453,0ZM60.321.72,49,24.812h-.29l-3.069-5.08ZM51.227,2.47,44.519,16.682h-.178L42.47,13.763ZM40.5,11.564S38.185,31.96,38.69,32.54a2.928,2.928,0,0,0,2.638,1.226h1.347v.851H31.57v-.8h.823a4.07,4.07,0,0,0,3.527-1.46c.412-.589,3.1-23.811,3.1-23.811ZM69.9,7.7s3.265,24.325,3.742,24.868a4.893,4.893,0,0,0,3.565,1.169h1.357v.879H62.407v-.833h1.375a4.8,4.8,0,0,0,3.855-1.637c.412-.6-1.871-15.709-1.871-15.709Z" transform="translate(-31.57)" fill="#f2f2f2"/>
</svg>
