<svg 
xmlns="http://www.w3.org/2000/svg" 
width="80.737" 
height="62.7" 
viewBox="0 0 80.737 62.7">
  <path 
  id="makor" 
  d="M62.913,48.432l7.6,14.269h.691L98.372,0ZM80.964,1.3,61.515,44.941h-.5l-5.272-9.2ZM65.341,4.474,53.816,30.215H53.51L50.3,24.928ZM46.9,20.945s-3.97,36.942-3.1,37.993a4.936,4.936,0,0,0,4.533,2.22h2.315V62.7H31.57V61.243h1.414a6.825,6.825,0,0,0,6.06-2.644c.707-1.068,5.32-43.128,5.32-43.128Zm50.519-7s5.61,44.06,6.429,45.043a8.131,8.131,0,0,0,6.124,2.118h2.331V62.7H84.548V61.192h2.363a8.051,8.051,0,0,0,6.622-2.966c.707-1.085-3.215-28.452-3.215-28.452Z" 
  transform="translate(-31.57)" 
  fill="#54A9FF"/>
</svg>
