<svg xmlns="http://www.w3.org/2000/svg" width="16" height="18" viewBox="0 0 16 18">
  <g id="Group_6696" data-name="Group 6696" transform="translate(-749 -549)">
    <path id="Union_14" data-name="Union 14" d="M8.373,15.57A5.61,5.61,0,0,0,8,4.364V6.3L2.558,3.151,8,0V1.938A8.036,8.036,0,0,1,8.373,18Zm-5.225.793L4.7,14.5a5.534,5.534,0,0,0,2.913,1.07V18A7.941,7.941,0,0,1,3.148,16.363ZM.611,13.069l2.275-.831a5.645,5.645,0,0,0,1.242,1.774L2.57,15.875A8.07,8.07,0,0,1,.611,13.069ZM0,10.353H2.421a5.554,5.554,0,0,0,.206,1.172l-2.276.831A8.015,8.015,0,0,1,0,10.353Z" transform="translate(749 549)" fill="#54f4ff"/>
  </g>
</svg>
