<svg xmlns="http://www.w3.org/2000/svg" width="20" height="20" viewBox="0 0 20 20">
  <g id="noun-document-stack-3370402" transform="translate(-139.384 -104.989)">
    <path id="Path_1294" data-name="Path 1294" d="M159.138,351.714H140.832a.828.828,0,0,1-.721-.429.88.88,0,0,1,0-.857.828.828,0,0,1,.721-.429h18.306a.828.828,0,0,1,.721.429.88.88,0,0,1,0,.857A.828.828,0,0,1,159.138,351.714Z" transform="translate(-0.586 -230.666)" fill="#828282"/>
    <path id="Path_1295" data-name="Path 1295" d="M159.138,404.214H140.832a.828.828,0,0,1-.721-.429.88.88,0,0,1,0-.857.828.828,0,0,1,.721-.429h18.306a.828.828,0,0,1,.721.429.88.88,0,0,1,0,.857A.828.828,0,0,1,159.138,404.214Z" transform="translate(-0.586 -279.225)" fill="#828282"/>
    <path id="Path_1297" data-name="Path 1297" d="M159.334,116.14l-3.328-10.519a.951.951,0,0,0-.3-.457.758.758,0,0,0-.478-.174H142.742a.76.76,0,0,0-.523.187.971.971,0,0,0-.309.521l-2.5,10.519a1.071,1.071,0,0,0,.142.832.8.8,0,0,0,.691.373h18.306a.807.807,0,0,0,.682-.411,1.078,1.078,0,0,0,.1-.87Zm-10.768-7.325h4.161a.819.819,0,0,1,.721.478,1.081,1.081,0,0,1,0,.956.819.819,0,0,1-.721.478h-4.161a.819.819,0,0,1-.721-.478,1.081,1.081,0,0,1,0-.956A.819.819,0,0,1,148.567,108.814Zm5.825,4.781h-9.985a.819.819,0,0,1-.721-.478,1.081,1.081,0,0,1,0-.956.819.819,0,0,1,.721-.478h9.985a.819.819,0,0,1,.721.478,1.081,1.081,0,0,1,0,.956A.819.819,0,0,1,154.391,113.6Z" transform="translate(0 0)" fill="#828282"/>
  </g>
</svg>
