<svg xmlns="http://www.w3.org/2000/svg" width="32" height="24" viewBox="0 0 32 24">
  <path 
  id="makor" 
  d="M43.993,18.538,47.006,24h.274L58.047,0ZM51.147.5,43.439,17.2h-.2l-2.09-3.522ZM44.955,1.712l-4.568,9.853h-.121L38.992,9.542Zm-7.307,6.3s-1.574,14.141-1.23,14.543a1.981,1.981,0,0,0,1.8.85h.917V24H31.57v-.558h.561a2.748,2.748,0,0,0,2.4-1.012c.28-.409,2.109-16.508,2.109-16.508ZM57.671,5.338S59.894,22.2,60.219,22.579a3.294,3.294,0,0,0,2.427.811h.924V24h-11v-.577H53.5a3.241,3.241,0,0,0,2.625-1.135c.28-.415-1.274-10.891-1.274-10.891Z" 
  transform="translate(-31.57)" 
  fill="#54a9ff"/>
</svg>
