<svg xmlns="http://www.w3.org/2000/svg" width="20" height="20" viewBox="0 0 20 20">
  <g id="support" transform="translate(858 -298)">
    <path id="Path_1313" data-name="Path 1313" d="M14.323,4.278A4.778,4.778,0,1,0,19.1,9.056a4.778,4.778,0,0,0-4.778-4.778Z" transform="translate(-862.323 296.722)" fill="#828282"/>
    <path id="Path_1314" data-name="Path 1314" d="M6.818,12.27a1.745,1.745,0,0,0,1.818-1.656V8.452A1.743,1.743,0,0,0,6.818,6.8,1.743,1.743,0,0,0,5,8.452v2.162A1.745,1.745,0,0,0,6.818,12.27ZM15,2.656a7.462,7.462,0,0,1,6.126,3.068,3.845,3.845,0,0,1,1.753-.556A9.262,9.262,0,0,0,15,1,9.262,9.262,0,0,0,7.121,5.168a3.845,3.845,0,0,1,1.753.556A7.462,7.462,0,0,1,15,2.656ZM23.182,6.8a1.745,1.745,0,0,0-1.818,1.656v1.656A1.623,1.623,0,0,0,22.2,11.5a2.686,2.686,0,0,1-2.651,1.924.832.832,0,1,0,0,1.656,4.43,4.43,0,0,0,4.475-3.508A1.641,1.641,0,0,0,25,10.108V8.452A1.745,1.745,0,0,0,23.182,6.8Z" transform="translate(-863 297)" fill="#828282"/>
    <path id="Path_1312" data-name="Path 1312" d="M22.6,25.147a.932.932,0,0,1-.234.625.763.763,0,0,1-.566.259H5.8a.763.763,0,0,1-.566-.259A.932.932,0,0,1,5,25.147c0-4.116,4.879-6.156,4.879-6.156a6.156,6.156,0,0,0,3.82,1.394,10.1,10.1,0,0,0,2.507-.184s.679,1.355,1.527,1.556a6.656,6.656,0,0,0,2.5-.31A4.253,4.253,0,0,1,22.6,25.147Z" transform="translate(-861.801 291.969)" fill="#828282"/>
  </g>
</svg>
