<svg xmlns="http://www.w3.org/2000/svg" width="20" height="20.001" viewBox="0 0 20 20.001">
  <g id="user_online" data-name="user online" transform="translate(-128.5 -796.886)">
    <path id="Union_15" data-name="Union 15" d="M12.676,20H1.907A1.9,1.9,0,0,1,0,18.105V16.463A6.364,6.364,0,0,1,1.534,12.4,4.938,4.938,0,0,1,5.28,10.543h.663c.186.084.361.175.531.262a4.564,4.564,0,0,0,2.381.648h.069a4.13,4.13,0,0,0,2.236-.616c.18-.1.367-.2.576-.294H12.4A4.985,4.985,0,0,1,15.7,11.9a5.431,5.431,0,0,0-3.836,5.221A5.508,5.508,0,0,0,12.677,20v0ZM4.538,4.365A4.307,4.307,0,0,1,8.784,0,4.307,4.307,0,0,1,13.03,4.365,4.306,4.306,0,0,1,8.784,8.729,4.306,4.306,0,0,1,4.538,4.365Z" transform="translate(128.499 796.886)" fill="#fff"/>
    <circle id="Ellipse_612" data-name="Ellipse 612" cx="2.837" cy="2.837" r="2.837" transform="translate(142.825 811.211)" fill="#22d847"/>
  </g>
</svg>
